<svg viewBox="-7 0 32 32" version="1.1" xmlns="http://www.w3.org/2000/svg" xmlns:xlink="http://www.w3.org/1999/xlink" xmlns:sketch="http://www.bohemiancoding.com/sketch/ns" fill="#000000"><g id="SVGRepo_bgCarrier" stroke-width="0"></g><g id="SVGRepo_tracerCarrier" stroke-linecap="round" stroke-linejoin="round"></g><g id="SVGRepo_iconCarrier"> <title>smartphone</title> <desc>Created with Sketch Beta.</desc> <defs> </defs> <g id="Page-1" stroke="none" stroke-width="1" fill="none" fill-rule="evenodd" sketch:type="MSPage"> <g id="Icon-Set-Filled" sketch:type="MSLayerGroup" transform="translate(-473.000000, -465.000000)" fill="#FFFFFF"> <path d="M473,485 L491,485 L491,472 L473,472 L473,485 Z M487,465 L477,465 C474.791,465 473,466.791 473,469 L473,470 L491,470 L491,469 C491,466.791 489.209,465 487,465 L487,465 Z M482,489 C483.104,489 484,489.896 484,491 C484,492.104 483.104,493 482,493 C480.896,493 480,492.104 480,491 C480,489.896 480.896,489 482,489 L482,489 Z M473,493 C473,495.209 474.791,497 477,497 L487,497 C489.209,497 491,495.209 491,493 L491,487 L473,487 L473,493 L473,493 Z" id="smartphone" sketch:type="MSShapeGroup"> </path> </g> </g> </g></svg>