<svg fill="#FFFFFF" version="1.1" id="Layer_1" xmlns="http://www.w3.org/2000/svg" xmlns:xlink="http://www.w3.org/1999/xlink" viewBox="0 0 512 512" xml:space="preserve" stroke="#FFFFFF"><g id="SVGRepo_bgCarrier" stroke-width="0"></g><g id="SVGRepo_tracerCarrier" stroke-linecap="round" stroke-linejoin="round"></g><g id="SVGRepo_iconCarrier"> <g> <g> <rect x="77.913" y="77.913" width="222.609" height="33.391"></rect> </g> </g> <g> <g> <rect x="77.913" y="155.826" width="222.609" height="33.391"></rect> </g> </g> <g> <g> <g> <polygon points="178.087,411.826 77.913,411.826 77.913,445.217 278.261,445.217 278.261,411.826 211.478,411.826 211.478,345.043 178.087,345.043 "></polygon> <path d="M445.217,211.478v-33.391h-33.391v-33.391h-33.391V0H0v512h378.435V311.652h33.391v-33.391h33.391V244.87h33.391v-33.391 H445.217z M345.043,211.478h-33.391v33.391h-33.391v33.391H244.87v33.391h-33.391v33.391h33.391v33.391h33.391v33.391h33.391 v-33.391h33.391v100.174H33.391V33.391h311.652V211.478z"></path> </g> </g> </g> <g> <g> <rect x="478.609" y="144.696" width="33.391" height="66.783"></rect> </g> </g> <g> <g> <rect x="411.826" y="111.304" width="66.783" height="33.391"></rect> </g> </g> </g></svg>